<svg xmlns="http://www.w3.org/2000/svg" width="39.672" height="39.672" viewBox="0 0 39.672 39.672">
  <g id="그룹_122" data-name="그룹 122" transform="translate(0)">
    <path id="패스_272" data-name="패스 272" d="M301.671,131.836a19.783,19.783,0,0,1-1.441,7.436l-.006.015h0a19.749,19.749,0,0,1-2.511,4.439q-.3.4-.612.776c-.077.093-.155.185-.233.276q-.6.7-1.269,1.341-.155.15-.313.3l-.074.068a19.821,19.821,0,0,1-1.623,1.332q-.568.42-1.165.8-.131.084-.264.164-.231.141-.465.275-.306.176-.62.341c-.084.045-.17.089-.255.132-.124.064-.249.126-.376.186l-.065.031c-.082.04-.166.079-.249.117a19.652,19.652,0,0,1-3.372,1.2l-.019,0-.228.056-.172.04-.022.005c-.118.028-.236.054-.355.078l-.2.042-.122.024-.153.029-.085.015-.193.035c-.109.019-.219.037-.329.053l-.239.035-.282.038-.077.01-.1.012-.2.023-.105.011-.2.019-.259.022c-.106.008-.211.016-.317.022l-.2.012c-.175.009-.35.016-.526.021l-.263.005h0l-.263,0a19.9,19.9,0,0,1-2.667-.178q-.973-.13-1.914-.353l-.075-.018-.189-.046-.167-.043a19.681,19.681,0,0,1-4.143-1.6l-.02-.011-.113-.06q-.124-.065-.247-.133-.7-.385-1.364-.823-.171-.112-.338-.227l-.106-.074-.11-.077q-.145-.1-.289-.208-.594-.437-1.153-.916a19.936,19.936,0,0,1-3.472-3.864q-.515-.75-.961-1.548a19.837,19.837,0,1,1,37.165-9.659Z" transform="translate(-262 -112)" fill="#ffd800"/>
    <path id="패스_273" data-name="패스 273" d="M654.35,340.656l.189-.046.167-.043c0-.117.007-.245.011-.384.035-1.089.116-2.843.309-4.955q.016-.17.032-.342c.069-.716.149-1.469.245-2.249,0-.026.006-.051.009-.077.078-.633.167-1.282.266-1.944q.1-.695.227-1.4l.018-.1c.024-.137.048-.273.072-.41.069-.382.142-.766.219-1.151.271-1.352.593-2.712.977-4.036a32.345,32.345,0,0,1,1.44-4.026,19.874,19.874,0,0,1,1.569-2.924l.026-.04a11.222,11.222,0,0,1,2.661-2.887l-.209-.285a11.525,11.525,0,0,0-2.655,2.823l-.012.017a19.214,19.214,0,0,0-1.58,2.832,30.952,30.952,0,0,0-1.507,4.071q-.578,1.938-1.036,4.2-.161.8-.308,1.633l-.049.286s0,0,0,0c-.025.147-.049.293-.074.442q-.092.561-.173,1.113-.125.85-.226,1.671-.033.271-.065.538-.044.377-.083.744-.055.511-.1,1l-.009.09-.014.154C654.448,337.537,654.373,339.613,654.35,340.656Z" transform="translate(-631.325 -301.534)" opacity="0.2"/>
    <path id="패스_274" data-name="패스 274" d="M731.01,589.689l.02-.011c.121-.063.241-.127.36-.192.039-.468.092-.983.161-1.524.015-.111.029-.225.046-.339.008-.061.017-.123.026-.185.069-.477.151-.968.25-1.462a12.058,12.058,0,0,1,2.171-5.35c.059-.069.12-.134.182-.2a3.972,3.972,0,0,1,.505-.443l-.209-.285a4.523,4.523,0,0,0-.693.633q-.11.122-.215.255a12.5,12.5,0,0,0-2.048,5.051c-.1.49-.19.978-.264,1.454q-.028.187-.054.37C731.136,588.269,731.061,589.031,731.01,589.689Z" transform="translate(-703.486 -552.253)" opacity="0.2"/>
    <circle id="타원_54" data-name="타원 54" cx="1.766" cy="1.766" r="1.766" transform="translate(31.67 8.562)" opacity="0.2"/>
    <circle id="타원_55" data-name="타원 55" cx="1.766" cy="1.766" r="1.766" transform="translate(31.101 23.762)" opacity="0.2"/>
    <path id="패스_275" data-name="패스 275" d="M674.47,280.381a7.844,7.844,0,0,1-.452,4.025,7.148,7.148,0,0,1-1.356-7.65A7.844,7.844,0,0,1,674.47,280.381Z" transform="translate(-648.045 -267.087)" opacity="0.2"/>
    <path id="패스_276" data-name="패스 276" d="M747.485,383.012a7.882,7.882,0,0,1-4.04.264,7.192,7.192,0,0,1,7.3-2.668A7.882,7.882,0,0,1,747.485,383.012Z" transform="translate(-715.192 -364.703)" opacity="0.2"/>
    <path id="패스_277" data-name="패스 277" d="M772.655,624.483a5.5,5.5,0,0,1-2.834.18,5.01,5.01,0,0,1,5.115-1.87A5.5,5.5,0,0,1,772.655,624.483Z" transform="translate(-740.02 -592.715)" opacity="0.2"/>
    <path id="패스_278" data-name="패스 278" d="M701.96,648.27l.072.037C702.025,648.383,702.008,648.43,701.96,648.27Z" transform="translate(-676.141 -616.798)" fill="#2f2e41"/>
    <path id="패스_279" data-name="패스 279" d="M703.2,646.508c0,.008,0,.017,0,.025l-.025-.013c0-.008,0-.016,0-.024C703.188,646.394,703.181,646.273,703.2,646.508Z" transform="translate(-677.289 -615.012)" fill="#2f2e41"/>
    <circle id="타원_56" data-name="타원 56" cx="9.637" cy="9.637" r="9.637" transform="translate(8.654 9.415)" fill="#2f2e41"/>
    <circle id="타원_57" data-name="타원 57" cx="5.836" cy="5.836" r="5.836" transform="translate(13.248 16.624)" fill="#d0cde1"/>
    <path id="패스_280" data-name="패스 280" d="M424.218,560.5l-.007,0-1.357.326-2.826.678-.386.093-4.3,1.031-.365.088-10.428,2.5a19.563,19.563,0,0,1-2.063-.929l-.02-.011-.113-.06-.247-.133q-.7-.385-1.364-.823-.171-.112-.338-.227l-.106-.074-.11-.077q-.145-.1-.289-.208c1.013-1.841,3.425-3.065,5.837-3.734,1.82-.506,2.221-2.168,2.186-3.648a8.63,8.63,0,0,0-.086-1.008,9.831,9.831,0,0,0-.35-1.569l5.836.195.6,1.387a3.141,3.141,0,0,0-.016.459,2.77,2.77,0,0,0,1.615,2.349c.113.062.228.119.346.172a9.147,9.147,0,0,0,3.095.69A5.959,5.959,0,0,1,420.5,558q.185.028.359.067a5.173,5.173,0,0,1,1.884.843,5.373,5.373,0,0,1,.611.506A4.855,4.855,0,0,1,424.218,560.5Z" transform="translate(-391.808 -526.856)" fill="#d0cde1"/>
    <path id="패스_281" data-name="패스 281" d="M746.5,679.839l-.074.068a19.84,19.84,0,0,1-1.623,1.332q-.568.42-1.166.8-.131.084-.264.164-.231.141-.465.275-.306.176-.62.341c-.085.045-.17.089-.255.132-.124.064-.249.126-.376.186l-.065.031-.248-.206,2.916-3.563.586-.717a1.631,1.631,0,0,1,.771.391,7.692,7.692,0,0,1,.839.724Z" transform="translate(-713.21 -645.424)" fill="#d0cde1"/>
    <path id="패스_282" data-name="패스 282" d="M464.418,667.326a.666.666,0,0,1-.033.108,19.809,19.809,0,0,1-1.623,1.332,6.917,6.917,0,0,1-1.514.36s.044.221.084.6q-.231.141-.465.275-.306.176-.62.341c-.085.045-.17.089-.255.132-.124.064-.249.126-.376.186l-.065.031c-.082.04-.165.079-.249.117a19.652,19.652,0,0,1-3.372,1.2l-.019,0-.228.056-.172.04-.022.005c-.118.028-.236.054-.355.078l-.2.042-.122.024-.153.029-.085.015-.193.035c-.109.019-.219.037-.329.053l-.239.035-.282.038-.077.01-.1.012-.2.023-.105.011-.2.019-.259.022-.317.022-.2.012c-.175.009-.35.016-.526.021l-.264.005h0l-.263,0a19.911,19.911,0,0,1-2.667-.178q-.973-.13-1.914-.353l-.075-.018-.189-.046-.167-.043a19.688,19.688,0,0,1-4.143-1.6l-.02-.011-.113-.06c3.221-.751,8.312-1.934,12.729-2.948l.369-.085c1.632-.374,3.16-.723,4.453-1.015l.393-.088c1.389-.312,2.468-.549,3.053-.668a4.777,4.777,0,0,1,.478-.084l1.221,1.893Z" transform="translate(-431.173 -632.952)" fill="#2f2e41"/>
    <circle id="타원_58" data-name="타원 58" cx="2.871" cy="2.871" r="2.871" transform="translate(6.604 9.21)" fill="#2f2e41"/>
    <circle id="타원_59" data-name="타원 59" cx="2.871" cy="2.871" r="2.871" transform="translate(24.237 8.39)" fill="#2f2e41"/>
    <path id="패스_283" data-name="패스 283" d="M661.571,236.87a2.87,2.87,0,0,1,2.563-2.854,2.871,2.871,0,1,0,0,5.707A2.87,2.87,0,0,1,661.571,236.87Z" transform="translate(-637.539 -226.84)" fill="#2f2e41"/>
    <path id="패스_284" data-name="패스 284" d="M348.544,295.952a2.87,2.87,0,0,1-.166-3.832,2.871,2.871,0,1,0,3.994,4.076A2.87,2.87,0,0,1,348.544,295.952Z" transform="translate(-342.277 -281.55)" fill="#2f2e41"/>
    <path id="패스_285" data-name="패스 285" d="M475.02,359.777c-3.4,0-6.151,1.606-6.151,3.588a2.918,2.918,0,0,0,1.467,2.323l1.184-.858-.322,1.344c.134.062.27.122.412.177l1.769-2.064v2.535a10.324,10.324,0,0,0,1.64.13c3.4,0,6.151-1.607,6.151-3.588S478.417,359.777,475.02,359.777Z" transform="translate(-456.729 -345.236)" fill="#2f2e41"/>
    <path id="패스_286" data-name="패스 286" d="M674.583,303.876s-.446,2.05,2.34,2.87Z" transform="translate(-650.346 -292.616)" fill="#2f2e41"/>
    <path id="패스_287" data-name="패스 287" d="M435.981,310.235s1.025,2.292-2.05,3.318Z" transform="translate(-423.841 -298.602)" fill="#2f2e41"/>
    <ellipse id="타원_60" data-name="타원 60" cx="0.486" cy="1.167" rx="0.486" ry="1.167" transform="translate(12.563 22.634) rotate(-15.639)" fill="#d0cde1"/>
    <ellipse id="타원_61" data-name="타원 61" cx="1.167" cy="0.486" rx="1.167" ry="0.486" transform="translate(24.46 23.789) rotate(-86.476)" fill="#d0cde1"/>
  </g>
</svg>
