<svg xmlns="http://www.w3.org/2000/svg" width="39.999" height="40" viewBox="0 0 39.999 40">
  <g id="그룹_123" data-name="그룹 123" transform="translate(0)">
    <path id="패스_288" data-name="패스 288" d="M302,132a19.932,19.932,0,0,1-1.611,7.875l-.066.153A20.032,20.032,0,0,1,278.529,151.7l-.36-.066a19.823,19.823,0,0,1-3.618-1.067q-.285-.114-.566-.237c-.128-.056-.256-.113-.382-.172A20,20,0,1,1,302,132Z" transform="translate(-262 -112)" fill="#ffd800"/>
    <path id="패스_289" data-name="패스 289" d="M406.378,355.247l-.36-.066a82.235,82.235,0,0,0-1.26-11.792,43.75,43.75,0,0,0-2.157-7.844,24.414,24.414,0,0,0-1.128-2.476,12.839,12.839,0,0,0-3.583-4.432l.211-.288a12.374,12.374,0,0,1,3.208,3.673q.427.708.82,1.511.422.859.8,1.824.244.614.472,1.271a46.135,46.135,0,0,1,1.684,6.507q.154.808.292,1.655A83.91,83.91,0,0,1,406.378,355.247Z" transform="translate(-389.849 -315.549)" opacity="0.2"/>
    <path id="패스_290" data-name="패스 290" d="M405.288,604.467c-.128-.056-.256-.113-.382-.172a29.052,29.052,0,0,0-.766-4.591,15.065,15.065,0,0,0-.7-2.083,6.25,6.25,0,0,0-1.881-2.634l.211-.287a6.538,6.538,0,0,1,1.967,2.695,18.481,18.481,0,0,1,1.178,4.152C405.1,602.593,405.216,603.6,405.288,604.467Z" transform="translate(-393.302 -566.139)" opacity="0.2"/>
    <circle id="타원_62" data-name="타원 62" cx="1.78" cy="1.78" r="1.78" transform="translate(4.27 9.52)" opacity="0.2"/>
    <circle id="타원_63" data-name="타원 63" cx="1.78" cy="1.78" r="1.78" transform="translate(4.844 24.845)" opacity="0.2"/>
    <path id="패스_291" data-name="패스 291" d="M482.154,295.41a7.908,7.908,0,0,0,.456,4.059,7.207,7.207,0,0,0,1.367-7.713A7.908,7.908,0,0,0,482.154,295.41Z" transform="translate(-469.035 -281.12)" opacity="0.2"/>
    <path id="패스_292" data-name="패스 292" d="M331.5,398.033a7.947,7.947,0,0,0,4.073.266,7.251,7.251,0,0,0-7.357-2.69A7.947,7.947,0,0,0,331.5,398.033Z" transform="translate(-324.299 -378.686)" opacity="0.2"/>
    <path id="패스_293" data-name="패스 293" d="M341.327,639.5a5.543,5.543,0,0,0,2.857.181,5.051,5.051,0,0,0-5.157-1.886A5.543,5.543,0,0,0,341.327,639.5Z" transform="translate(-334.47 -606.58)" opacity="0.2"/>
    <circle id="타원_64" data-name="타원 64" cx="7.797" cy="7.797" r="7.797" transform="translate(12.161 8.835)" fill="#d0cde1"/>
    <path id="패스_294" data-name="패스 294" d="M547.833,455.224s.975,4.629.975,5.117,4.629,2.68,4.629,2.68l4.142-.731,1.462-4.386s-2.436-3.655-2.436-5.117Z" transform="translate(-530.921 -432.623)" fill="#d0cde1"/>
    <path id="패스_295" data-name="패스 295" d="M418.218,521.174l-.066.153A20.032,20.032,0,0,1,396.359,533l-.36-.066a19.821,19.821,0,0,1-3.618-1.067q-.285-.114-.566-.237c-.128-.056-.256-.113-.382-.172a19.975,19.975,0,0,1-3.269-1.91l-.924-2.681.519-.4,1.069-.816,1.14-.87.3-.227,4.474-3.415.33-.252,2.325-1.775h0s2.515,4.1,6.17,2.879a5.04,5.04,0,0,0,3.575-4.712Z" transform="translate(-379.83 -493.3)" fill="#2f2e41"/>
    <path id="패스_296" data-name="패스 296" d="M455.879,218.366s2.475-5.363,7.22-4.126,7.426,3.094,7.633,4.951a26.488,26.488,0,0,1-.1,4.641s-.516-3.816-3.816-2.991-8.458.206-8.458.206l-.825,7.426s-.928-1.341-1.96-.516S452.578,220.016,455.879,218.366Z" transform="translate(-442.682 -208.016)" fill="#2f2e41"/>
    <path id="패스_297" data-name="패스 297" d="M376.651,684.27q-.285-.114-.566-.237c-.128-.056-.256-.113-.382-.172a20.048,20.048,0,0,1-5.183-3.473,7.01,7.01,0,0,1,.989-1.118h3.655l.548,1.843Z" transform="translate(-364.099 -645.705)" fill="#2f2e41"/>
    <path id="패스_298" data-name="패스 298" d="M853.123,576.32l3.135.554a20,20,0,0,1-3.358,5.241Z" transform="translate(-817.937 -548.847)" fill="#2f2e41"/>
  </g>
</svg>
